<svg xmlns="http://www.w3.org/2000/svg" width="256" height="256"><path fill-opacity=".016" d="M0 128.004v128.004l128.25-.254 128.25-.254.254-127.75L257.008 0H0v128.004m.485.496c0 70.4.119 99.053.265 63.672.146-35.38.146-92.98 0-128C.604 29.153.485 58.1.485 128.5" fill="#1976D2" fill-rule="evenodd"/><path fill-opacity=".103" d="M74.5 40.867c-3.85 2.617-8.687 5.779-10.75 7.027L60 50.163l-1.75-3.075c-.962-1.692-1.999-3.078-2.302-3.082-.508-.005-6.047 23.24-5.631 23.635.1.096 4.454.91 9.675 1.809 5.221.898 10.587 1.908 11.926 2.244l2.434.611-2.344-3.793c-2.295-3.713-2.304-3.823-.426-5.226 4.975-3.716 5.269-3.659 8.589 1.682 1.727 2.779 3.279 4.915 3.447 4.747.169-.168 1.373-5.37 2.676-11.56l2.37-11.254-3.409-5.451c-1.875-2.997-3.487-5.426-3.582-5.396-.095.03-3.323 2.196-7.173 4.813M100 75.56v16.561l3.75-.311 3.75-.31.299-6.314c.252-5.309.57-6.264 2-6 1.635.302 5.36 6.492 6.477 10.761.431 1.649 1.343 2.053 4.63 2.053 4.959 0 5.002-.482.8-9l-3.206-6.5 2.25-2.214c1.565-1.54 2.24-3.368 2.218-6-.059-7.066-3.621-9.286-14.902-9.286H100v16.56m28.479-15.365c-.294.766-.41 8.123-.257 16.349L128.5 91.5h7l.299-6.314c.252-5.309.57-6.264 2-6 .948.175 3.029 3.075 4.701 6.551 2.886 6.001 3.142 6.237 6.75 6.25 2.063.007 3.75-.428 3.75-.967 0-1.675-3.245-9.395-5.053-12.02-1.667-2.421-1.646-2.557.666-4.297 3.085-2.322 3.344-9.299.476-12.842-1.708-2.11-2.878-2.398-10.993-2.71-7.083-.273-9.2-.043-9.617 1.044M157 75.5V92h7V78h11.514l-.359 4.523c-.597 7.5.314 9.477 4.364 9.477H183V59h-3.433c-3.994 0-4.888 1.676-4.411 8.273l.305 4.227H164.5l-.298-6.25-.297-6.25H157v16.5m32.225-.25.275 16.25 3.75.31 3.75.311V78H207.909l.295 6.75.296 6.75h7l.275-16.25.275-16.25H208v13h-11V59h-8.05l.275 16.25M107.829 69c.254 2.667.868 4 1.842 4 2.817 0 5.329-2.087 5.329-4.428 0-2.466-1.659-3.572-5.358-3.572-1.958 0-2.154.433-1.813 4M136 68.937c0 3.611.264 4.063 2.378 4.063 2.989 0 4.873-2.2 4.449-5.195-.253-1.785-1.06-2.376-3.577-2.618-3.185-.307-3.25-.232-3.25 3.75M59.492 74.75l2.564 3.75-2.778 2.245C57.75 81.98 56.275 82.991 56 82.993c-.275.002-1.779-2.021-3.342-4.495-1.563-2.474-3.25-4.498-3.75-4.498-.499 0-.908.165-.908.366 0 .201-1.146 5.441-2.546 11.644l-2.546 11.278 3.611 5.438c2.342 3.528 4.108 5.247 5.026 4.895.779-.299 5.458-3.261 10.397-6.582C66.882 97.717 71.379 95 71.936 95c.557 0 1.711 1.35 2.564 3s1.903 3 2.334 3c1.088 0 6.325-24.262 5.41-25.065-.647-.568-22.41-4.949-24.53-4.939-.432.002.368 1.692 1.778 3.754m14.762 64.5c-.545.688-1.559 4.4-2.255 8.25-1.575 8.719-1.657 8.853-4.287 7.011-2.848-1.995-11.023-1.932-15.345.119-3.582 1.7-7.577 7.518-8.836 12.87-3.06 13.006-2.402 18.481 2.528 21.03 4.004 2.071 10.817 1.843 14.643-.49 2.392-1.458 3.06-1.584 2.643-.496-.444 1.158.488 1.456 4.548 1.456 2.809 0 5.107-.156 5.107-.347 0-.19 2.25-10.79 5-23.554s5-24.083 5-25.153c0-1.593-.703-1.946-3.878-1.946-2.132 0-4.323.563-4.868 1.25m19.883.5c-.513.963-1.091 2.875-1.285 4.25-.328 2.327-.028 2.521 4.337 2.802 4.64.299 4.699.265 5.712-3.406 1.31-4.743.835-5.396-3.925-5.396-2.698 0-4.194.541-4.839 1.75M11.02 154.7c-6.183 3.198-9.5 10.029-10.687 22.01-1.043 10.538 3.421 13.954 17.089 13.077 7.938-.51 11.807-2.395 14.129-6.886 2.495-4.824 1.959-5.901-2.936-5.901-3.574 0-4.688.462-6.023 2.5-1.375 2.098-2.418 2.5-6.493 2.5-5.602 0-7.497-1.567-6.534-5.404l.652-2.596h11.269c8.673 0 11.549-.337 12.484-1.464.668-.805 1.286-4.39 1.372-7.966.135-5.552-.175-6.835-2.119-8.786-1.939-1.945-3.5-2.329-10.5-2.584-6.395-.233-8.997.101-11.703 1.5m80.258-.45c-.896 1.159-7.328 30.703-7.294 33.5.011.812 1.587 1.25 4.497 1.25 3.831 0 4.554-.326 4.985-2.25 3.208-14.302 6.534-30.589 6.534-31.991 0-1.376-.844-1.759-3.878-1.759-2.132 0-4.312.563-4.844 1.25m24.742.502c-4.575 2.298-7.384 6.683-9.385 14.652-2.337 9.303-2.136 13.902.757 17.265 2.145 2.494 3.164 2.82 9.873 3.159 10.256.518 15.973-1.933 18.743-8.035C138.89 175.442 138.694 175 133 175c-4.272 0-5 .281-5 1.929 0 3.22-2.776 5.071-7.603 5.071-5.578 0-6.086-1.119-4.487-9.866 1.753-9.584 3.021-11.134 9.113-11.134 3.253 0 5.017.433 5.092 1.25.064.688.176 1.925.25 2.75.095 1.051 1.53 1.59 4.794 1.801 4.461.288 4.688.173 5.322-2.714.831-3.785-1.146-8.106-4.481-9.793-3.777-1.911-15.815-1.635-19.98.458m42.48-1.066c-6.296 1.724-10.123 8.206-12.463 21.108-2.122 11.705 2.228 15.839 15.804 15.019 11.689-.705 15.714-4.377 18.546-16.916 2.236-9.901 2.075-13.249-.8-16.591-2.255-2.622-2.961-2.818-10.75-2.987-4.586-.099-9.237.066-10.337.367m36.052.23c-.535.866-7.552 33.06-7.552 34.65 0 .299 2.108.406 4.684.239l4.683-.305 2.829-11.935c1.555-6.564 3.568-12.751 4.471-13.75 2.137-2.361 9.129-2.511 10.01-.215.503 1.312-2.401 17.903-4.315 24.65-.425 1.497.215 1.75 4.416 1.75h4.914l2.304-10.983c1.268-6.041 3.131-12.341 4.14-14 1.605-2.64 2.399-3.017 6.349-3.017 4.431 0 4.515.06 4.494 3.25-.012 1.787-1.069 7.855-2.35 13.484-1.28 5.628-2.096 10.466-1.812 10.75.284.284 2.458.516 4.831.516 3.655 0 4.392-.344 4.826-2.25 4.438-19.482 5.316-25.687 4.152-29.353-1.711-5.392-14.85-6.031-19.912-.968-1.463 1.463-1.818 1.376-4.225-1.031-2.373-2.373-3.201-2.587-8.521-2.202-3.72.269-6.607 1.073-7.83 2.179-1.849 1.673-1.93 1.67-1.788-.061.119-1.442-.702-1.876-4.008-2.117-2.287-.167-4.443.157-4.79.719m-180.981 8.655C10.24 165.903 11.585 167 19 167h7v-3c0-2.965-.063-3-5.429-3-3.601 0-5.957.529-7 1.571m42.017.679c-2.047 3.16-3.801 10.775-3.414 14.83.303 3.175.6 3.443 4.152 3.735 6.19.509 8.264-1.586 10.205-10.311C68.56 162.385 67.884 161 61.401 161c-3.418 0-4.669.484-5.813 2.25m104.099-.794c-2.404 2.404-5.209 16.21-3.67 18.065 1.624 1.956 9.371 1.948 11.331-.012 2.178-2.178 3.879-8.051 4.025-13.896l.127-5.113-5.13-.298c-3.62-.21-5.588.159-6.683 1.254m-39.622 34.966c-.687.828-.78 1.636-.227 1.978.515.318 1.458-.052 2.097-.822.687-.828.78-1.636.227-1.978-.515-.318-1.458.052-2.097.822m42.105.3c-.965 1.843-3.17 11.375-3.17 13.702 0 1.746 5.648 2.835 8.047 1.551 1.035-.554 2.415-2.786 3.067-4.96 1.398-4.668.126-7.015-3.804-7.015-1.954 0-2.323-.385-1.837-1.916.801-2.521-1.106-3.649-2.303-1.362m39.895-.3c-.687.828-.78 1.636-.227 1.978.515.318 1.458-.052 2.097-.822.687-.828.78-1.636.227-1.978-.515-.318-1.458.052-2.097.822m-92.096 2.302c-2.144 2.506-2.509 12.855-.48 13.633 2.056.789 4.366-.217 5.541-2.414 1.375-2.569-.777-3.653-2.565-1.293-1.34 1.769-1.403 1.755-1.433-.318-.05-3.424 1.029-5.332 3.016-5.332 2.57 0 3.45-1.875 1.265-2.695-.997-.375-2.265-1.283-2.819-2.019-.82-1.092-1.285-1.011-2.525.438m-80.203 3.026c-5.605 6.355-.644 14.355 6.011 9.693 2.277-1.594 3.041-4.443 1.192-4.443-.568 0-1.291.675-1.607 1.5-.632 1.645-3.909 2.043-4.81.584-1.089-1.762 1.343-6.084 3.423-6.084 1.114 0 2.025.45 2.025 1s.675 1 1.5 1 1.5-.585 1.5-1.3c0-3.688-6.491-5.059-9.234-1.95m13.018-.049c-.888.99-1.921 3.448-2.295 5.463-.58 3.127-.359 3.835 1.509 4.835 4.923 2.635 10.419-1.942 9.821-8.178-.289-3.011-.651-3.349-3.87-3.62-2.438-.204-4.057.266-5.165 1.5m12.269 2.049c-.573 2.063-1.044 4.8-1.047 6.083-.01 3.819 2.406 1.919 3.386-2.664.749-3.501 1.281-4.169 3.317-4.169 1.842 0 2.301.421 1.906 1.75-1.77 5.959-1.814 7.25-.242 7.25.918 0 1.847-1.16 2.201-2.75.336-1.512.832-3.559 1.102-4.548.764-2.808-1.552-4.702-5.751-4.702-3.575 0-3.901.251-4.872 3.75m14.47-2.5c-.769 2.321-2.512 9.244-2.517 10-.003.412.639.75 1.427.75 1.408 0 1.771-.759 2.993-6.25.43-1.93 1.237-2.75 2.707-2.75 1.915 0 2.036.384 1.419 4.5-.545 3.633-.386 4.5.825 4.5 1.633 0 3.31-7.766 2.266-10.488-.725-1.888-8.507-2.112-9.12-.262m14.133.577c-.958 1.059-2.004 3.54-2.324 5.513-.518 3.195-.284 3.725 2.136 4.827 2.226 1.015 3.185.976 5.295-.214 3.04-1.714 4.071-3.953 1.82-3.953-.87 0-1.583.45-1.583 1s-1.125 1-2.5 1c-1.511 0-2.5-.57-2.5-1.443 0-.982 1.356-1.54 4.25-1.75 3.987-.288 4.25-.492 4.25-3.307 0-2.714-.338-3.028-3.551-3.299-2.508-.21-4.063.268-5.293 1.626m12.939.341c-2.524 3.603-2.087 8.651.864 9.995 1.969.898 2.965.789 5-.544 1.398-.916 2.541-2.33 2.541-3.142 0-1.926-1.897-1.909-2.638.023-.317.825-1.456 1.5-2.532 1.5-1.605 0-1.9-.584-1.643-3.25.24-2.491.838-3.325 2.563-3.57 1.237-.175 2.25.162 2.25.75 0 .589.706 1.07 1.57 1.07 1.055 0 1.464-.737 1.25-2.25-.478-3.361-6.991-3.772-9.225-.582m21.509 1.582c-1.658 6.386-1.689 7.75-.18 7.75 1.415 0 4.352-9.89 3.262-10.981-1.244-1.244-2.174-.268-3.082 3.231m6.583-2.378c-.289.755-.847 3.512-1.239 6.128-.898 5.985 1.329 5.942 3.006-.059.825-2.948 1.686-4.025 3.417-4.273 1.844-.264 2.205.041 1.77 1.5-1.762 5.913-1.833 7.332-.368 7.332 2.092 0 4.253-8.661 2.644-10.6-1.516-1.826-8.531-1.848-9.23-.028m13.87.851c-2.223 3.172-2.021 8.458.371 9.738 1.06.568 2.635.76 3.5.428 2.301-.883 1.92.354-.51 1.655-1.693.906-2.334.772-3.429-.715-1.3-1.767-1.371-1.764-2.08.066-1.464 3.779 4.415 5.497 8.272 2.417.65-.518 1.68-3.268 2.289-6.11.61-2.842 1.365-6.188 1.678-7.435.529-2.107.248-2.267-3.983-2.267-3.57 0-4.887.479-6.108 2.223m35.994-1.306c-.311.504-.836 2.884-1.166 5.289-.761 5.551.906 7.294 5.769 6.034 3-.778 3.439-1.371 4.48-6.058.728-3.276.799-5.414.193-5.789-1.338-.827-1.693-.294-3.141 4.706-.813 2.808-1.924 4.516-3.085 4.739-1.632.315-1.744-.163-1.114-4.744.453-3.295.335-5.094-.334-5.094-.569 0-1.29.413-1.602.917m13.695.237c-2.739 2.739-1.281 5.577 3.203 6.236 2.469.362 2.329 2.071-.199 2.43-1.238.175-2.25-.162-2.25-.75 0-.589-.675-1.07-1.5-1.07-2.553 0-1.762 3.896.928 4.571 3.282.824 6.344-.276 7.671-2.755 1.314-2.456-.519-4.821-3.934-5.079-1.191-.089-2.165-.576-2.165-1.081s1.603-.657 3.563-.339c2.984.484 3.511.302 3.242-1.12-.397-2.097-6.733-2.869-8.559-1.043m11.807 2.596c-1.424 5.128-1.343 8.513.192 8.002 1.309-.437 3.914-10.26 2.97-11.204-1.263-1.262-2.181-.332-3.162 3.202m6 0c-.573 2.063-1.044 4.8-1.047 6.083-.01 3.819 2.406 1.919 3.386-2.664.749-3.501 1.281-4.169 3.317-4.169 1.842 0 2.301.421 1.906 1.75-1.77 5.959-1.814 7.25-.242 7.25.918 0 1.847-1.16 2.201-2.75.336-1.512.832-3.559 1.102-4.548.764-2.808-1.552-4.702-5.751-4.702-3.575 0-3.901.251-4.872 3.75m15.012-2.329c-.694.837-1.625 3.128-2.068 5.091-.705 3.126-.508 3.762 1.592 5.138 2.748 1.801 7.174 1.13 8.077-1.223.841-2.19-.177-2.749-2.436-1.338-2.155 1.345-5.73.529-4.734-1.082.342-.554 2.424-1.007 4.626-1.007 3.916 0 3.998-.072 3.691-3.25-.283-2.937-.658-3.279-3.899-3.551-2.295-.192-4.04.248-4.849 1.222m13.181-.267c-1.96 1.96-1.46 4.83 1.004 5.761 1.238.468 2.588.651 3 .409.412-.243.75.26.75 1.117 0 1.812-3.64 2.138-4.227.379-.217-.653-1.14-.893-2.066-.538-4.193 1.609 1.75 5.66 6.222 4.241 4.885-1.551 4.857-7.523-.036-7.523-1.591 0-2.893-.509-2.893-1.131 0-.738 1.239-.93 3.563-.552 2.984.484 3.511.302 3.242-1.12-.397-2.097-6.733-2.869-8.559-1.043m13 0c-.685.685-1.246 2.281-1.246 3.546 0 2.119 1.825 2.959 5.25 2.418.412-.065.75.557.75 1.382 0 1.794-3.111 1.989-4.8.3-.933-.933-1.478-.918-2.45.067-1.002 1.016-.865 1.552.691 2.7 3.878 2.863 9.559 1 9.559-3.134 0-2.403-3.408-4.841-5.25-3.757-.412.243-.75-.085-.75-.728 0-.801 1.131-.958 3.585-.498 3.109.583 3.54.432 3.242-1.139-.418-2.204-6.688-3.05-8.581-1.157m-202.73 3.096c-1.179 3.501-.916 5.198.864 5.562 2.173.445 3.583-1.339 3.605-4.562.011-1.6-.572-2.25-2.016-2.25-1.118 0-2.221.563-2.453 1.25m41.753-.557c.973.254 2.323.237 3-.037.677-.274-.119-.481-1.769-.461-1.65.02-2.204.244-1.231.498m54.398-.026c-1.222 1.222-.711 6.333.633 6.333 2.003 0 3.7-2.155 3.7-4.7 0-2.233-2.712-3.255-4.333-1.633m22.301 1.917c-1.105 2.907-.553 4.416 1.616 4.416 1.324 0 3.416-3.715 3.416-6.065 0-2.156-4.095-.814-5.032 1.649m60.782-1.922c.688.278 1.813.278 2.5 0 .688-.277.125-.504-1.25-.504s-1.937.227-1.25.504" fill="#1976D2" fill-rule="evenodd"/><path fill-opacity=".267" d="M100.75 59.577c-1.036 1.045-.919 29.608.128 31.26.467.736 1.922 1.186 3.235 1 2.187-.309 2.412-.861 2.685-6.587.282-5.916.431-6.25 2.792-6.25 2.103 0 2.95 1.017 5.41 6.5 2.663 5.936 3.18 6.5 5.958 6.5 1.915 0 3.042-.51 3.042-1.376 0-1.971-4.696-12.318-5.939-13.086-.624-.386.014-1.559 1.583-2.908 2.075-1.785 2.629-3.161 2.629-6.532 0-6.759-2.475-8.522-12.55-8.937-4.523-.187-8.561.001-8.973.416m28.475 15.569L129.5 91.5l2.75.316 2.75.317v-6.567c0-6.247.116-6.566 2.378-6.566 2.937 0 3.939 1.171 6.419 7.508 1.607 4.104 2.443 5.05 4.7 5.32 1.511.181 3.125-.05 3.586-.511.462-.462-.678-3.967-2.534-7.788l-3.374-6.948 2.512-2.985c2.002-2.38 2.396-3.695 1.944-6.481-.981-6.049-3.49-7.565-13.184-7.969l-8.498-.353.276 16.353m28 .039L157.5 91.5h6l.296-6.75.295-6.75h11.818l.295 6.75.296 6.75h6v-32l-3.25-.313-3.25-.314V72H164.095l-.297-6.25-.298-6.25-3.275-.315-3.275-.315.275 16.315m33 .065.275 16.25 2.75.316 2.75.317V78H208.909l.295 6.75c.283 6.454.405 6.75 2.796 6.75h2.5l.275-16.25.275-16.25H209v13h-13V59h-6.05l.275 16.25M107 69c0 3.756.179 4 2.929 4 3.014 0 6.071-2.201 6.071-4.371 0-2.162-2.305-3.629-5.7-3.629-3.183 0-3.3.141-3.3 4m28-.057c0 3.78.192 4.057 2.809 4.057 3.946 0 6.453-2.1 6.036-5.056-.296-2.094-.953-2.488-4.595-2.751l-4.25-.308v4.058m-76.978 2.74c.012.449.902 1.942 1.978 3.317 2.577 3.295 2.493 4.447-.465 6.385-3.561 2.334-4.093 2.118-7.696-3.12l-3.258-4.734-2.244 10.984c-1.234 6.042-2.265 11.456-2.29 12.031-.026.576 1.418 3.37 3.208 6.209l3.255 5.163 10.495-6.924c5.772-3.808 10.821-6.94 11.219-6.959.399-.019 1.449 1.367 2.335 3.08.886 1.713 1.943 2.726 2.349 2.25 1.045-1.226 5.497-22.294 4.847-22.943-.295-.295-4.973-1.43-10.396-2.522-5.422-1.092-10.647-2.221-11.609-2.51-.962-.289-1.74-.157-1.728.293M72.5 148c-.961 4.95-2.087 9-2.502 9-.414 0-1.313-.675-1.998-1.5-1.911-2.303-12.656-2.007-16.701.46-3.977 2.424-5.608 5.555-7.677 14.737-2.248 9.976-2.093 12.923.833 15.848 3.262 3.263 12.143 3.485 17.091.427l3.282-2.029-.548 2.093c-.501 1.917-.184 2.066 3.784 1.778l4.331-.314 4.725-22c2.599-12.1 4.974-23.238 5.278-24.75.535-2.663.415-2.75-3.799-2.75h-4.351l-1.748 9m22.197-8.25c-.231.412-.716 1.988-1.078 3.5-.643 2.691-.561 2.75 3.862 2.75 2.941 0 4.524-.436 4.533-1.25.007-.687.285-2.262.616-3.5.553-2.063.266-2.25-3.454-2.25-2.232 0-4.247.338-4.479.75M9.952 156.253c-4.609 3.106-6.754 7.21-8.477 16.216C-1.119 186.023 1.314 189 14.987 189c7.387 0 9.225-.343 12.046-2.25 1.83-1.238 3.923-3.713 4.65-5.5l1.323-3.25h-4.138c-3.13 0-4.703.609-6.456 2.5C18.398 184.832 9 183.463 9 178.547c0-5.403.338-5.547 12.982-5.547H33.75l.625-3.125c.344-1.719.625-5.061.625-7.427 0-6.592-2.964-8.448-13.487-8.448-6.869 0-8.766.37-11.561 2.253m80.729.497c-.314 1.512-1.945 9.272-3.625 17.243-1.681 7.972-3.056 14.609-3.056 14.75 0 .733 7.965.123 8.44-.646.307-.496 1.934-7.584 3.616-15.75 1.682-8.166 3.288-15.634 3.569-16.597.431-1.481-.174-1.75-3.933-1.75-4.041 0-4.493.248-5.011 2.75m24.623-.794c-1.757 1.072-3.872 2.983-4.699 4.246-2.108 3.222-4.617 13.367-4.757 19.234-.1 4.195.286 5.282 2.573 7.25 2.294 1.972 3.794 2.314 10.167 2.314 11.564 0 16.447-2.927 18.022-10.802.637-3.182.619-3.198-3.466-3.198-3.556 0-4.191.338-4.739 2.523-1.182 4.708-7.661 7.016-12.471 4.442-2.346-1.256-2.372-2.143-.33-11.121 1.912-8.407 3.975-10.85 9.146-10.829 4.648.019 5.951.815 6.399 3.906.304 2.1.883 2.421 4.351 2.422 3.96 0 4.003-.04 4.302-4.058.253-3.405-.13-4.398-2.385-6.172-3.764-2.96-17.357-3.057-22.113-.157m40.966-.473c-4.168 1.811-6.828 6.28-8.738 14.676-2.032 8.934-1.933 13.125.379 15.98 1.706 2.108 2.858 2.393 10.75 2.659 13.423.453 17.811-2.553 20.811-14.258 1.607-6.268 2.007-15.276.763-17.14-1.6-2.397-5.451-3.398-12.919-3.361-4.423.022-9.218.649-11.046 1.444m38.268-.233c-.912 2.853-6.538 30.389-6.538 32 0 1.37.854 1.75 3.933 1.75 4.459 0 4.13.598 6.606-12 2.763-14.058 4.823-17 11.904-17 4.636 0 4.921 1.953 2.135 14.621-1.418 6.45-2.578 12.324-2.578 13.053 0 1.75 7.904 1.821 8.465.076.222-.687 1.371-5.992 2.554-11.788 2.531-12.393 4.064-14.895 9.579-15.635 7.403-.993 7.551 1.325 1.692 26.487-.508 2.18-.287 2.295 3.836 2l4.374-.314 2.667-12c3.298-14.842 3.423-17.91.833-20.5-3.064-3.064-12.53-2.808-17.36.47-2.681 1.819-3.64 2.092-3.64 1.035 0-3.897-12.196-4.902-17.828-1.469l-3.327 2.029.645-2.032c.577-1.818.212-2.033-3.454-2.033-2.399 0-4.264.518-4.498 1.25m-181.157 7.278c-3.823 3.823-2.68 4.933 5.419 5.265 6.927.285 7.159.217 7.782-2.263.94-3.745-1.077-5.53-6.25-5.53-3.398 0-5.009.586-6.951 2.528m42.674-.583c-2.27 2.27-5.055 10.952-5.055 15.758 0 4.313 3.277 6.075 8.773 4.718 4.548-1.124 6.824-5.135 7.845-13.821.595-5.072.434-6.089-1.154-7.25-2.715-1.985-8.139-1.675-10.409.595m104.024-.195c-2.284 1.865-5.047 10.603-5.067 16.021-.015 3.988 3.098 5.806 8.274 4.835 4.806-.902 6.534-3.257 8.218-11.208 1.806-8.523 1.81-7.941-.075-9.827-2.114-2.113-8.67-2.01-11.35.179M120 198c0 .55.45 1 1 1s1-.45 1-1-.45-1-1-1-1 .45-1 1m40.882 5.75c-1.79 8.984-1.886 8.605 2.271 9.01 4.337.422 6.847-2.281 6.847-7.376 0-3.431-1.931-4.858-5.18-3.827-1.625.516-1.805.231-1.251-1.977.371-1.479.223-2.58-.347-2.58-.548 0-1.601 3.037-2.34 6.75M202 198c0 .55.45 1 1 1s1-.45 1-1-.45-1-1-1-1 .45-1 1m-92.499 2.75c-.391.963-.777 4-.857 6.75-.126 4.364.122 5.038 1.944 5.298 2.245.321 5.203-2.375 3.918-3.572-.429-.399-.981-.163-1.226.524-.246.688-1.12 1.25-1.943 1.25-1.164 0-1.341-.721-.799-3.25.93-4.336 1.242-4.75 3.58-4.75 1.1 0 1.717-.457 1.372-1.016-.346-.559-1.05-.756-1.566-.437s-1.208-.124-1.538-.984c-.791-2.061-2.001-1.983-2.885.187m-79.109 2.767c-3.603 3.604-3.086 8.846.918 9.305 2.88.33 5.69-1.223 5.69-3.144 0-.702-.418-.66-1.2.122-2.047 2.047-5.8 1.487-5.8-.866 0-5.184 3.95-7.685 6.608-4.184 1.236 1.629 1.331 1.601 1.36-.393.029-1.962-1.673-3.357-4.095-3.357-.53 0-2.096 1.132-3.481 2.517m12.632.18c-2.611 3.319-2.434 8.614.305 9.133 4.203.797 6.572-.747 7.727-5.037.986-3.661.904-4.349-.656-5.49-2.738-2.002-5.049-1.565-7.376 1.394m15.34-2.006c-1.389.272-2.334 1.408-2.702 3.247a139.496 139.496 0 0 1-1.222 5.445c-.4 1.593-.241 2.617.406 2.617.585 0 1.367-1.687 1.739-3.75.828-4.594 2.055-6.25 4.631-6.25 1.798 0 1.909.453 1.266 5.128-.481 3.501-.37 4.921.349 4.477 1.802-1.114 2.643-9.691 1.049-10.7-1.425-.903-1.904-.922-5.516-.214m13.933.009c-2.322.45-2.771 1.352-3.876 7.8-.818 4.768.635 3.913 2.081-1.224 1.979-7.035 7.139-7.053 5.553-.02-.832 3.691.344 6.456 1.28 3.009 1.511-5.567 1.645-7.585.586-8.861-1.178-1.418-1.642-1.477-5.624-.704m12.276.87c-3.234 3.234-3.38 9.651-.232 10.257 3.088.595 6.659-.77 6.659-2.546 0-1.307-.267-1.414-1.2-.481-1.725 1.725-5.8 1.514-5.8-.3 0-1.045 1.052-1.5 3.465-1.5 4.296 0 6.445-2.947 3.962-5.431-2.005-2.004-4.849-2.004-6.854.001m13.689-.041c-2.716 1.902-4.149 8.295-2.144 9.565 2.183 1.383 5.593 1.052 7.358-.713.891-.891 1.365-1.873 1.055-2.183-.31-.311-1.097-.032-1.748.619-1.671 1.671-5.783 1.492-5.783-.252 0-.789.439-2.589.975-4 1.113-2.927 4.425-3.459 5.837-.937.707 1.265 1.088 1.343 1.702.349.489-.79.086-1.796-1.052-2.629-2.368-1.731-3.518-1.698-6.2.181m29.102-.838c-1.389.272-2.334 1.408-2.702 3.247a139.496 139.496 0 0 1-1.222 5.445c-.4 1.593-.241 2.617.406 2.617.585 0 1.367-1.687 1.739-3.75.831-4.61 2.055-6.25 4.666-6.25 1.834 0 1.949.437 1.332 5.087-.433 3.264-.321 4.869.313 4.477 1.753-1.083 2.546-9.67.984-10.659-1.425-.903-1.904-.922-5.516-.214m12.792.997c-1.231 1.007-2.48 3.457-2.809 5.512-.537 3.356-.353 3.76 1.973 4.344 1.412.354 3.042.35 3.623-.009.581-.359 1.057.063 1.057.937 0 2.205-2.868 3.091-5.23 1.617-2.422-1.513-3.502-.676-1.79 1.387 1.696 2.043 5.351 1.93 7.258-.226 1.505-1.702 4.497-12.848 3.67-13.675-1.563-1.564-5.774-1.502-7.752.113m48.788.156c-3.055 2.474-2.002 5.156 2.025 5.156 2.028 0 3.031.497 3.031 1.5 0 1-1 1.5-3 1.5-1.65 0-3-.45-3-1s-.45-1-1-1c-1.614 0-1.146 2.73.582 3.393 4.302 1.651 8.418-.054 8.418-3.486 0-1.8-1.935-2.907-5.082-2.907-1.055 0-1.918-.42-1.918-.933 0-1.578 4.01-2.303 5.572-1.007 1.943 1.612 3.069.418 1.448-1.536-1.694-2.04-4.307-1.922-7.076.32m20.463-1.159c-1.558.307-2.37 1.614-3.179 5.114-.607 2.625-.707 5.09-.227 5.581.485.497 1.165-.811 1.56-3 .852-4.722 2.062-6.38 4.655-6.38 1.798 0 1.909.453 1.266 5.128-.481 3.501-.37 4.921.349 4.477 1.802-1.114 2.643-9.691 1.049-10.7-1.423-.902-1.916-.921-5.473-.22m12.855.844c-2.716 1.902-4.149 8.295-2.144 9.565 2.13 1.349 6.505 1.066 7.808-.505.737-.888.808-1.635.192-2.016-.539-.333-1.262-.148-1.608.411-1.002 1.621-5.51 1.225-5.51-.484 0-1.079 1.104-1.5 3.933-1.5 3.159 0 4.068-.428 4.622-2.174.482-1.519.144-2.573-1.124-3.5-2.337-1.709-3.494-1.671-6.169.203m12.682.315c-3.086 2.499-2 5.156 2.108 5.156 2.045 0 2.973.429 2.703 1.25-.575 1.747-4.859 2.2-5.838.616-1.055-1.707-2.339-.409-1.572 1.591.714 1.861 6.694 2.104 8.455.343 2.802-2.802.796-5.8-3.882-5.8-1.055 0-1.918-.42-1.918-.933 0-1.485 3.968-2.338 5.39-1.158 1.709 1.418 2.905.151 1.479-1.567-1.551-1.869-4.238-1.674-6.925.502m12.577-.223c-2.509 2.51-1.482 4.833 2.298 5.197 1.991.192 3.148.787 2.913 1.5-.557 1.694-4.856 2.1-5.815.548-1.055-1.707-2.339-.409-1.572 1.591.778 2.027 6.046 2.009 8.084-.028 2.971-2.972 1.382-5.429-3.511-5.429-1.055 0-1.918-.464-1.918-1.031 0-1.674 3.118-2.377 5.086-1.147 1.081.675 2.055.759 2.396.208.642-1.04-2.54-3.03-4.845-3.03-.822 0-2.224.73-3.116 1.621m-129.366 4.529c-1.25 5.414-.968 7.28.632 4.186 1.421-2.748 2.43-9.336 1.43-9.336-.48 0-1.408 2.317-2.062 5.15m56.519-4.4c-.244.412-.757 2.645-1.14 4.961-.64 3.87-.508 4.246 1.635 4.653 5.994 1.138 6.637.767 7.763-4.481 1.285-5.995 1.281-5.883.21-5.883-.472 0-1.259 1.912-1.75 4.25-.761 3.627-1.295 4.296-3.642 4.566-3.042.35-3.071.271-1.831-5.066.763-3.29.007-5.115-1.245-3m25.409 4.299c-1.304 6.079-1.299 5.951-.208 5.951.481 0 1.135-1.298 1.452-2.883a141 141 0 0 1 1.233-5.5c.389-1.548.238-2.617-.369-2.617-.564 0-1.513 2.272-2.108 5.049m-156.015-2.175C42.131 208.492 42.73 211 45.531 211c2.645 0 3.272-.845 3.707-4.997.342-3.264-3.571-4.119-5.17-1.129m41.641-1.25c-.39.39-.709 1.114-.709 1.609 0 1.221 5.006.526 5.281-.733.258-1.179-3.542-1.906-4.572-.876m54.266 1.941c-1.571 4.134-1.201 5.435 1.55 5.435 1.816 0 2.81-.75 3.541-2.672 1.295-3.408.553-5.328-2.059-5.328-1.287 0-2.421.96-3.032 2.565m23.06-.631c-1.863 3.482-1.285 6.066 1.358 6.066 2.543 0 3.607-1.647 3.607-5.582 0-3.015-3.431-3.35-4.965-.484m59.674-1.31c-1.486 1.486-.597 2.376 2.374 2.376 2.02 0 2.942-.431 2.672-1.25-.467-1.418-3.972-2.2-5.046-1.126" fill="#1976D2" fill-rule="evenodd"/><path fill-opacity=".267" d="M101.75 59.574c-.412.418-.75 7.659-.75 16.093V91h6v-6.5c0-5.651.241-6.5 1.845-6.5 2.453 0 4.578 2.488 7.048 8.25 1.79 4.176 2.403 4.75 5.071 4.75 1.67 0 3.036-.188 3.036-.417 0-1.287-4.385-10.35-5.722-11.828-1.454-1.606-1.368-1.942 1.071-4.203 3.655-3.387 3.695-9.223.088-12.611-2.113-1.985-3.827-2.472-9.75-2.767-3.953-.197-7.525-.017-7.937.4m27.917.093c-.367.366-.667 7.566-.667 16V91h6v-6.5c0-5.604.249-6.5 1.809-6.5 2.927 0 4.959 2.174 7.014 7.5 1.701 4.41 2.308 5.038 5.142 5.32 2.953.294 3.156.131 2.496-2-1.12-3.621-4.615-10.246-5.807-11.01-.677-.433-.07-1.622 1.635-3.202 1.984-1.839 2.711-3.481 2.711-6.126 0-4.864-1.342-7.057-5.128-8.377-3.455-1.204-14.132-1.512-15.205-.438M158 75v16h2.454c2.334 0 2.469-.33 2.75-6.75l.296-6.75h13l.296 6.75c.281 6.42.416 6.75 2.75 6.75H182V59h-2.452c-2.31 0-2.47.363-2.75 6.25l-.298 6.25-6.75.296-6.75.295v-6.545c0-6.316-.088-6.546-2.5-6.546H158v16m32.709-15.376c-.39.39-.709 7.609-.709 16.043V91h6V77h13v14h6.051l-.276-15.75-.275-15.75H212c-2.368 0-2.516.329-2.798 6.25l-.297 6.25h-12.81l-.297-6.25c-.258-5.413-.571-6.289-2.339-6.542-1.123-.161-2.36.027-2.75.416M107 68.5c0 4.424.056 4.5 3.3 4.5 3.8 0 5.7-1.5 5.7-4.5s-1.9-4.5-5.7-4.5c-3.244 0-3.3.076-3.3 4.5m28 0c0 4.305.126 4.5 2.918 4.5 4.568 0 6.082-.973 6.082-3.907 0-3.577-1.696-5.093-5.7-5.093-3.244 0-3.3.076-3.3 4.5m-74.186 6.239C62.016 76.427 63 78.265 63 78.823 63 79.883 56.926 84 55.361 84c-.496 0-1.999-2.007-3.339-4.46-1.34-2.452-2.567-4.328-2.728-4.167-.161.16-1.353 5.105-2.65 10.988l-2.359 10.697 2.972 4.721c1.635 2.597 3.089 4.851 3.231 5.011.142.159 5.039-2.878 10.882-6.75S72.176 93 72.399 93c.222 0 1.274 1.373 2.336 3.05l1.931 3.051 1.818-8.801c1-4.84 2.187-9.807 2.638-11.038.91-2.484 1.641-2.157-10.622-4.745-3.85-.813-8.096-1.786-9.436-2.163l-2.435-.684 2.185 3.069m11.916 73.895c-.916 4.749-1.902 8.871-2.191 9.161-.29.289-1.374-.24-2.409-1.177-4.479-4.054-15.158-2.751-19.471 2.375C45.91 162.26 43 173.213 43 180.292c0 6.209 2.288 8.041 10.042 8.041 4.627 0 6.702-.507 8.987-2.196C64.96 183.97 65 183.968 65 185.97c0 1.651.65 2.03 3.481 2.03 2.792 0 3.582-.445 3.991-2.25.943-4.167 9.528-45.088 9.528-45.421 0-.181-1.711-.329-3.803-.329h-3.803l-1.664 8.634m21.877-7.052c-1.301 3.391-.654 4.418 2.786 4.418 3.328 0 4.607-1.272 4.607-4.582 0-2.051-6.599-1.905-7.393.164m-80.665 13.366C6.761 157.127 4.125 161.097 2 172.932c-1.379 7.688-.644 12.653 2.092 14.117 2.696 1.443 13.713 2.01 18.423.948 4.129-.932 7.889-4.187 8.95-7.747.597-2.004.32-2.25-2.533-2.25-2.132 0-3.977.836-5.52 2.5-4.201 4.534-16.841 2.667-14.97-2.211.307-.799.558-2.302.558-3.34 0-1.732 1.009-1.911 12.25-2.168l12.25-.281.824-5.5c1.126-7.525-.162-10.583-5.026-11.934-4.336-1.204-11.592-1.26-15.356-.118m77.534 1.499C88.703 168.729 85 186.196 85 186.993c0 .554 1.545 1.007 3.433 1.007 3.939 0 3.475 1.004 6.926-15 4.287-19.882 4.267-17.708.165-18.187-2.982-.348-3.663-.073-4.048 1.634m26.062-.948c-6.284 2.238-8.165 5.601-10.689 19.103-2.15 11.504.071 13.878 12.864 13.755 10.478-.1 14.485-2.518 16.75-10.107.619-2.075.355-2.25-3.396-2.25-2.948 0-4.067.413-4.067 1.5 0 2.854-3.809 5.5-7.918 5.5-7.597 0-8.304-1.579-5.954-13.282 1.52-7.571 3.666-9.718 9.711-9.718 5.038 0 7.161 1.245 7.161 4.2 0 1.39.796 1.8 3.5 1.8 3.381 0 3.499-.128 3.485-3.75-.009-2.062-.378-4.321-.821-5.018-2.025-3.191-13.764-4.177-20.626-1.733m41.647-.51c-5.002 1.184-8.003 4.682-10.245 11.94-2.775 8.986-2.796 16.659-.053 19.403 1.815 1.815 3.275 2.093 10.855 2.07 14.158-.042 16.871-2.603 20.011-18.887 1.986-10.303 1.191-12.881-4.454-14.449-4.32-1.199-11.231-1.232-16.114-.077m39.065-.176c-1.787.173-3.25.494-3.25.715 0 .757-6.058 28.97-6.597 30.722-.448 1.46.11 1.75 3.363 1.75h3.9l2.283-10.75c3.402-16.013 4.833-17.869 13.163-17.074 3.373.323 3.388.347 3.279 5.324-.059 2.75-1.023 8.938-2.141 13.75l-2.033 8.75h7.448l2.726-11.88c3.169-13.817 4.795-16.12 11.374-16.12 6.033 0 6.372 1.35 3.605 14.384-1.298 6.114-2.362 11.679-2.365 12.366-.003.758 1.345 1.25 3.427 1.25h3.432l1.681-7.75c.925-4.262 2.226-10.225 2.892-13.25.666-3.025.933-6.621.594-7.992-1.525-6.156-13.428-6.718-19.613-.925-2.071 1.939-2.088 1.937-3.204-.513-2.003-4.396-12.233-4.703-17.544-.525l-2.534 1.993-.318-2.269c-.267-1.907-.836-2.219-3.568-1.956m-185.693 7.41c-.856 1.222-1.557 3.022-1.557 4 0 1.553.996 1.777 7.883 1.777 7.532 0 7.904-.107 8.344-2.405.832-4.355-.768-5.595-7.22-5.595-4.957 0-6.141.353-7.45 2.223m42.531-.311c-1.072 1.072-2.659 5.268-3.611 9.549-1.615 7.256-1.611 7.733.067 9.587 1.212 1.34 3.07 1.952 5.922 1.952 6.72 0 9.191-3.471 11.094-15.578.487-3.101.24-4.479-1.031-5.75-2.386-2.386-9.961-2.24-12.441.24m104.027-.027c-2.127 2.127-3.772 6.936-4.793 14.014-.781 5.414.98 7.101 7.415 7.101 6.287 0 8.683-2.771 10.321-11.939 1.648-9.222.981-10.458-5.86-10.862-4.016-.236-5.518.121-7.083 1.686m-48.849 39.341c-.56.701-.697 2.158-.304 3.238.633 1.739.795 1.641 1.425-.868.815-3.249.357-4.218-1.121-2.37m51.892.774c0 1.375.227 1.938.504 1.25.278-.687.278-1.812 0-2.5-.277-.687-.504-.125-.504 1.25M34 202.692c1.375.28 2.872 1.027 3.326 1.659.552.768.693.652.423-.351-.227-.846-1.677-1.569-3.326-1.659-2.517-.136-2.576-.088-.423.351m11-.305c0 .212 1.326.581 2.947.819 1.621.237 2.72.064 2.441-.387-.495-.802-5.388-1.194-5.388-.432m11.624 1.152c-.965 2.514-.681 3.163.498 1.136.584-1.004.851-2.036.593-2.293-.257-.258-.749.263-1.091 1.157m4.126-.877c.688.278 1.813.278 2.5 0 .688-.277.125-.504-1.25-.504s-1.937.227-1.25.504m13.25-.279c0 .211.901.619 2.001.907 1.101.288 1.75.115 1.441-.383-.538-.871-3.442-1.313-3.442-.524m14.347.343c2.307.345 2.744.818 2.306 2.494-.387 1.477-.233 1.76.536.991 1.828-1.828.113-4.224-2.908-4.061l-2.781.15 2.847.426m12.653-.034c1.375.28 2.872 1.027 3.326 1.659.552.768.693.652.423-.351-.227-.846-1.677-1.569-3.326-1.659-2.517-.136-2.576-.088-.423.351m28-.309c0 .211 1.111.596 2.47.856 1.358.26 2.232.087 1.941-.383-.512-.829-4.411-1.246-4.411-.473m12.75.279c.688.278 1.813.278 2.5 0 .688-.277.125-.504-1.25-.504s-1.937.227-1.25.504m4.634.78c-.304.792-.377 2.255-.161 3.25.244 1.129.586.587.911-1.442.544-3.406.191-4.259-.75-1.808m20.305-.794c1.203.261 2.415 1.235 2.692 2.163.363 1.216.447 1.128.301-.311-.137-1.358-1.002-2.053-2.692-2.164-2.087-.137-2.136-.087-.301.312m15.656.895c-.326.849-.369 1.767-.096 2.04.274.273.737-.422 1.03-1.543.624-2.383-.069-2.751-.934-.497m7.655-1.156c0 .212 1.326.581 2.947.819 1.621.237 2.72.064 2.441-.387-.495-.802-5.388-1.194-5.388-.432m17.624 1.152c-.965 2.514-.681 3.163.498 1.136.584-1.004.851-2.036.593-2.293-.257-.258-.749.263-1.091 1.157m4.126-.877c.688.278 1.813.278 2.5 0 .688-.277.125-.504-1.25-.504s-1.937.227-1.25.504m11.25-.275c0 .212 1.326.581 2.947.819 1.621.237 2.72.064 2.441-.387-.495-.802-5.388-1.194-5.388-.432m13 0c0 .212 1.326.581 2.947.819 1.621.237 2.72.064 2.441-.387-.495-.802-5.388-1.194-5.388-.432m13 0c0 .212 1.326.581 2.947.819 1.621.237 2.72.064 2.441-.387-.495-.802-5.388-1.194-5.388-.432m-179 1.672c0 .582.45.781 1 .441s1-.816 1-1.059-.45-.441-1-.441-1 .477-1 1.059m49.079.524c.048 1.165.285 1.402.604.605.289-.722.253-1.585-.079-1.917-.332-.332-.568.258-.525 1.312m128.079.417c0 1.375.227 1.938.504 1.25.278-.687.278-1.812 0-2.5-.277-.687-.504-.125-.504 1.25m-150.784.467c-.309.807-.37 2.044-.134 2.75s.666.045.956-1.467c.566-2.953.099-3.682-.822-1.283M188 205.5c0 .825.436 1.5.969 1.5.532 0 .709-.675.393-1.5-.317-.825-.753-1.5-.969-1.5-.216 0-.393.675-.393 1.5m13.079.083c.048 1.165.285 1.402.604.605.289-.722.253-1.585-.079-1.917-.332-.332-.568.258-.525 1.312M234 205.5c0 .825.436 1.5.969 1.5.532 0 .709-.675.393-1.5-.317-.825-.753-1.5-.969-1.5-.216 0-.393.675-.393 1.5m-183.921 1.083c.048 1.165.285 1.402.604.605.289-.722.253-1.585-.079-1.917-.332-.332-.568.258-.525 1.312m32.474 1.062c-.365 1.454-.301 3.003.142 3.441.443.438.886-.752.984-2.644.214-4.114-.217-4.419-1.126-.797m78.526-1.062c.048 1.165.285 1.402.604.605.289-.722.253-1.585-.079-1.917-.332-.332-.568.258-.525 1.312M227.5 206c-.34.55-.141 1 .441 1s1.059-.45 1.059-1-.198-1-.441-1-.719.45-1.059 1m-95.421 1.583c.048 1.165.285 1.402.604.605.289-.722.253-1.585-.079-1.917-.332-.332-.568.258-.525 1.312m6 0c.048 1.165.285 1.402.604.605.289-.722.253-1.585-.079-1.917-.332-.332-.568.258-.525 1.312m81.921-.524c0 .582.45.781 1 .441s1-.816 1-1.059-.45-.441-1-.441-1 .477-1 1.059m-156.921 1.524c.048 1.165.285 1.402.604.605.289-.722.253-1.585-.079-1.917-.332-.332-.568.258-.525 1.312m46.116.917c.02 1.65.244 2.204.498 1.231.254-.973.237-2.323-.037-3-.274-.677-.481.119-.461 1.769m65 0c.02 1.65.244 2.204.498 1.231.254-.973.237-2.323-.037-3-.274-.677-.481.119-.461 1.769m39.884-.917c.048 1.165.285 1.402.604.605.289-.722.253-1.585-.079-1.917-.332-.332-.568.258-.525 1.312m38.421.822c0 1.322.338 2.195.75 1.94.412-.254.75-1.336.75-2.404 0-1.068-.338-1.941-.75-1.941s-.75 1.082-.75 2.405m-197.421.178c.048 1.165.285 1.402.604.605.289-.722.253-1.585-.079-1.917-.332-.332-.568.258-.525 1.312m63 0c.048 1.165.285 1.402.604.605.289-.722.253-1.585-.079-1.917-.332-.332-.568.258-.525 1.312m49.021.712c-1.265 2.107-1.243 2.128.479.479.991-.95 1.587-1.942 1.324-2.205-.263-.263-1.074.514-1.803 1.726m13.631-.375c-.435 1.663-.305 2.054.437 1.312.582-.582.86-1.647.62-2.369-.25-.749-.703-.295-1.057 1.057m25.348-.337c.048 1.165.285 1.402.604.605.289-.722.253-1.585-.079-1.917-.332-.332-.568.258-.525 1.312m-170.515 1.124c-.542 1.425-.428 1.54.56.56.684-.679.991-1.486.683-1.793-.308-.308-.867.247-1.243 1.233m13 0c-.542 1.425-.428 1.54.56.56.684-.679.991-1.486.683-1.793-.308-.308-.867.247-1.243 1.233m75.515-.124c.048 1.165.285 1.402.604.605.289-.722.253-1.585-.079-1.917-.332-.332-.568.258-.525 1.312m20.485.124c-.542 1.425-.428 1.54.56.56.684-.679.991-1.486.683-1.793-.308-.308-.867.247-1.243 1.233M160 210.5c0 .825.436 1.5.969 1.5.532 0 .709-.675.393-1.5-.317-.825-.753-1.5-.969-1.5-.216 0-.393.675-.393 1.5m40.079.083c.048 1.165.285 1.402.604.605.289-.722.253-1.585-.079-1.917-.332-.332-.568.258-.525 1.312M138 211c0 .55.477 1 1.059 1s.781-.45.441-1-.816-1-1.059-1-.441.45-.441 1m107.5 0c.34.55.816 1 1.059 1s.441-.45.441-1-.477-1-1.059-1-.781.45-.441 1" fill="#1976D2" fill-rule="evenodd"/></svg>